# xmcd
#
# Track frame offsets: 
#        182
#        14237
#        26555
#        40952
#        55165
#        72077
#        86295
#        106680
#        122502
#        140512
#        157850
#        180017
#        198730
#        216382
#        248725
#        266505
#        289160
#
# Disc length: 4182 seconds
#
# Revision: 7
# Processed by: cddbd v1.5.2PL0 Copyright (c) Steve Scherf et al.
# Submitted via: ExactAudioCopyFreeDBPlugin 1.0
#
DISCID=e9105411
DTITLE=The Spinners - A One of a Kind Love Affair:  The Anthology
DYEAR=1991
DGENRE=Soul
TTITLE0=That's What Girls are Made For
TTITLE1=I'll Always Love You
TTITLE2=It's a Shame
TTITLE3=(Oh Lord) I Wish I Could Sleep
TTITLE4=How Could I Let You Get Away
TTITLE5=I'll Be Around
TTITLE6=Could It Be I'm Falling in Love
TTITLE7=One of a Kind (Love Affair)
TTITLE8=Don't Let the Green Grass Fool You
TTITLE9=Ghetto Child
TTITLE10=Mighty Love
TTITLE11=I'm Coming Home
TTITLE12=He'll Never Love You Like I Do
TTITLE13=Love Don't Love Nobody
TTITLE14=Then Came You
TTITLE15=Living a Little, Laughing a Little
TTITLE16=Sadie
EXTD=
EXTT0=
EXTT1=
EXTT2=
EXTT3=
EXTT4=
EXTT5=
EXTT6=
EXTT7=
EXTT8=
EXTT9=
EXTT10=
EXTT11=
EXTT12=
EXTT13=
EXTT14=
EXTT15=
EXTT16=
PLAYORDER=
